<svg width="145" height="144" viewBox="0 0 145 144" fill="none" xmlns="http://www.w3.org/2000/svg">
<path d="M0.017334 72C0.017334 32.2355 32.2528 0 72.0173 0C111.782 0 144.017 32.2355 144.017 72C144.017 111.765 111.782 144 72.0173 144C32.2528 144 0.017334 111.765 0.017334 72Z" fill="#2AB0AF"/>
<path d="M67.189 112.75H36.9466V30.9318H67.149C75.4853 30.9318 82.6631 32.5698 88.6822 35.8457C94.7281 39.095 99.3889 43.7825 102.665 49.9082C105.941 56.0073 107.579 63.3049 107.579 71.801C107.579 80.3237 105.941 87.6479 102.665 93.7736C99.4156 99.8993 94.768 104.6 88.7222 107.876C82.6764 111.125 75.4987 112.75 67.189 112.75ZM56.722 95.891H66.4299C71.0109 95.891 74.8861 95.1186 78.0555 93.5739C81.2515 92.0025 83.6618 89.459 85.2865 85.9434C86.9378 82.4011 87.7634 77.687 87.7634 71.801C87.7634 65.9149 86.9378 61.2274 85.2865 57.7385C83.6352 54.2228 81.1982 51.6926 77.9756 50.1479C74.7795 48.5765 70.8378 47.7908 66.1503 47.7908H56.722V95.891Z" fill="#0F2430"/>
</svg>
