<svg width="193" height="192" viewBox="0 0 193 192" fill="none" xmlns="http://www.w3.org/2000/svg">
<path d="M0.017334 96C0.017334 42.9807 42.998 0 96.0173 0C149.037 0 192.017 42.9807 192.017 96C192.017 149.019 149.037 192 96.0173 192C42.998 192 0.017334 149.019 0.017334 96Z" fill="#2AB0AF"/>
<path d="M89.5795 151H49.2564V41.9091H89.5263C100.641 41.9091 110.212 44.093 118.237 48.4609C126.298 52.7933 132.513 59.0433 136.881 67.2109C141.249 75.343 143.433 85.0732 143.433 96.4013C143.433 107.765 141.249 117.531 136.881 125.698C132.548 133.866 126.352 140.134 118.29 144.501C110.229 148.834 100.659 151 89.5795 151ZM75.6236 128.521H88.5675C94.6754 128.521 99.8423 127.491 104.068 125.432C108.33 123.337 111.543 119.945 113.71 115.258C115.911 110.535 117.012 104.249 117.012 96.4013C117.012 88.5533 115.911 82.3033 113.71 77.6513C111.508 72.9638 108.259 69.5902 103.962 67.5305C99.7003 65.4354 94.4446 64.3878 88.1946 64.3878H75.6236V128.521Z" fill="#0F2430"/>
</svg>
