<svg width="193" height="192" viewBox="0 0 193 192" fill="none" xmlns="http://www.w3.org/2000/svg">
<g clip-path="url(#clip0_215_1209)">
<path d="M0.017334 96C0.017334 42.9807 42.998 0 96.0173 0C149.037 0 192.017 42.9807 192.017 96C192.017 149.019 149.037 192 96.0173 192C42.998 192 0.017334 149.019 0.017334 96Z" fill="#2AB0AF"/>
<path d="M89.9238 163.923H41.1954V32.0923H89.8595C103.291 32.0923 114.857 34.7314 124.555 40.0098C134.296 45.2453 141.806 52.7981 147.085 62.6682C152.363 72.4954 155.002 84.2537 155.002 97.9432C155.002 111.676 152.363 123.477 147.085 133.347C141.849 143.217 134.361 150.791 124.619 156.07C114.878 161.305 103.313 163.923 89.9238 163.923ZM73.0588 136.759H88.7008C96.0819 136.759 102.326 135.514 107.433 133.025C112.582 130.493 116.466 126.395 119.084 120.73C121.744 115.023 123.075 107.427 123.075 97.9432C123.075 88.4593 121.744 80.9065 119.084 75.2848C116.423 69.6202 112.496 65.5434 107.304 63.0544C102.154 60.5225 95.803 59.2566 88.2502 59.2566H73.0588V136.759Z" fill="#0F2430"/>
</g>
<defs>
<clipPath id="clip0_215_1209">
<path d="M0.017334 96C0.017334 42.9807 42.998 0 96.0173 0C149.037 0 192.017 42.9807 192.017 96C192.017 149.019 149.037 192 96.0173 192C42.998 192 0.017334 149.019 0.017334 96Z" fill="white"/>
</clipPath>
</defs>
</svg>
