<svg width="193" height="192" viewBox="0 0 193 192" fill="none" xmlns="http://www.w3.org/2000/svg">
<g clip-path="url(#clip0_213_1192)">
<rect x="0.017334" width="192" height="192" rx="96" fill="#2AB0AF"/>
<path d="M93.7727 169H40.0085V23.5455H93.7017C108.522 23.5455 121.282 26.4574 131.983 32.2812C142.731 38.0578 151.017 46.3911 156.841 57.2812C162.665 68.1241 165.577 81.0975 165.577 96.2017C165.577 111.353 162.665 124.374 156.841 135.264C151.064 146.154 142.802 154.511 132.054 160.335C121.306 166.112 108.545 169 93.7727 169ZM75.1648 139.028H92.4233C100.567 139.028 107.456 137.655 113.091 134.909C118.773 132.116 123.058 127.594 125.946 121.344C128.882 115.046 130.349 106.666 130.349 96.2017C130.349 85.7377 128.882 77.4044 125.946 71.2017C123.01 64.9517 118.678 60.4536 112.949 57.7074C107.267 54.9138 100.259 53.517 91.9261 53.517H75.1648V139.028Z" fill="#0F2430"/>
</g>
<defs>
<clipPath id="clip0_213_1192">
<rect x="0.017334" width="192" height="192" rx="96" fill="white"/>
</clipPath>
</defs>
</svg>
