<svg width="205" height="205" viewBox="0 0 205 205" fill="none" xmlns="http://www.w3.org/2000/svg">
<rect width="205" height="205" rx="40" fill="#151F31"/>
<path d="M31.728 144.96C26.48 144.96 22.224 143.2 18.96 139.68C15.76 136.16 14.16 131.392 14.16 125.376V109.92C14.16 103.84 15.76 99.04 18.96 95.52C22.16 92 26.416 90.24 31.728 90.24C36.08 90.24 39.568 91.424 42.192 93.792C44.816 96.16 46.128 99.328 46.128 103.296L44.4 101.28H46.32L46.128 89.28V73.92H54.768V144H46.128V133.92H44.4L46.128 131.904C46.128 135.936 44.816 139.136 42.192 141.504C39.568 143.808 36.08 144.96 31.728 144.96ZM34.608 137.472C38.192 137.472 41.008 136.352 43.056 134.112C45.104 131.872 46.128 128.768 46.128 124.8V110.4C46.128 106.432 45.104 103.328 43.056 101.088C41.008 98.848 38.192 97.728 34.608 97.728C30.96 97.728 28.08 98.816 25.968 100.992C23.856 103.168 22.8 106.304 22.8 110.4V124.8C22.8 128.896 23.856 132.032 25.968 134.208C28.08 136.384 30.96 137.472 34.608 137.472ZM92.3625 144.96C88.2025 144.96 84.5545 144.128 81.4185 142.464C78.3465 140.8 75.9465 138.464 74.2185 135.456C72.5545 132.384 71.7225 128.832 71.7225 124.8V110.4C71.7225 106.304 72.5545 102.752 74.2185 99.744C75.9465 96.736 78.3465 94.4 81.4185 92.736C84.5545 91.072 88.2025 90.24 92.3625 90.24C96.5225 90.24 100.139 91.072 103.211 92.736C106.347 94.4 108.747 96.736 110.411 99.744C112.139 102.752 113.003 106.304 113.003 110.4V119.712H80.1705V124.8C80.1705 128.96 81.2265 132.16 83.3385 134.4C85.4505 136.576 88.4585 137.664 92.3625 137.664C95.6905 137.664 98.3785 137.088 100.427 135.936C102.475 134.72 103.723 132.928 104.171 130.56H112.811C112.235 134.976 110.059 138.496 106.283 141.12C102.571 143.68 97.9305 144.96 92.3625 144.96ZM104.555 113.952V110.4C104.555 106.24 103.499 103.04 101.387 100.8C99.3385 98.56 96.3305 97.44 92.3625 97.44C88.4585 97.44 85.4505 98.56 83.3385 100.8C81.2265 103.04 80.1705 106.24 80.1705 110.4V113.184H105.227L104.555 113.952ZM144.069 144L126.405 91.2H135.237L146.949 126.72C147.653 128.832 148.293 130.88 148.869 132.864C149.445 134.784 149.861 136.288 150.117 137.376C150.437 136.288 150.885 134.784 151.461 132.864C152.037 130.88 152.645 128.832 153.285 126.72L164.709 91.2H173.445L155.781 144H144.069Z" fill="#F9F4DA"/>
<path d="M184.531 100.719C183.125 100.719 182.422 100.016 182.422 98.6094V92.8906C182.422 91.4844 183.125 90.7812 184.531 90.7812H189.781C191.188 90.7812 191.891 91.4844 191.891 92.8906V98.6094C191.891 100.016 191.188 100.719 189.781 100.719H184.531ZM184.438 140C183.031 140 182.328 139.297 182.328 137.891V132.172C182.328 130.766 183.031 130.062 184.438 130.062H189.875C191.281 130.062 191.984 130.766 191.984 132.172V137.891C191.984 141.172 191.625 144.031 190.906 146.469C190.219 148.938 188.844 151.094 186.781 152.938C186.094 153.531 185.516 153.609 185.047 153.172L182.938 151.203C182.469 150.766 182.578 150.234 183.266 149.609C184.328 148.672 185.188 147.312 185.844 145.531C186.531 143.781 186.875 141.938 186.875 140H184.438Z" fill="#F7BA44"/>
</svg>
